# xmcd
#
# Track frame offsets: 
#        150
#        22996
#        48670
#        61076
#        83210
#        99997
#        116522
#        143530
#        168007
#        188046
#        208527
#
# Disc length: 3011 seconds
#
# Revision: 0
# Processed by: cddbd v1.5.1PL0 Copyright (c) Steve Scherf et al.
# Submitted via: ExactAudioCopy v0.95b3
#
DISCID=820bc10b
DTITLE=Various Artist - Student Buzz Chart - Nothing Fresher (Autumn 2002), C
DTITLE=D1
DYEAR=2002
DGENRE=
TTITLE0=Fragile State/Hoop Dreams
TTITLE1=Hard Candy/Summer Of '95
TTITLE2=Randy Maverick/Pure Love
TTITLE3=Just Jack/Snow Flakes
TTITLE4=J-Walk/Soul Vibration
TTITLE5=Beverly Knight/Shape Of You [Reshaped featuring Hollywood]
TTITLE6=Dog/Bliss [Peshay Remix]
TTITLE7=Shy FX/Feelin' U (featuring Kele Le Roc)
TTITLE8=St Etienne/Shower Scene
TTITLE9=Gus Gus/Unnecessary
TTITLE10=Droyds/Girls On Pills
EXTD=
EXTT0=
EXTT1=
EXTT2=
EXTT3=
EXTT4=
EXTT5=
EXTT6=
EXTT7=
EXTT8=
EXTT9=
EXTT10=
PLAYORDER=
